<svg width="93" height="33" viewBox="0 0 93 33" fill="none" xmlns="http://www.w3.org/2000/svg">
<path d="M0 22.912V22.112L0.64 22.048C1.38667 21.9627 1.952 21.856 2.336 21.728C2.74133 21.5787 3.01867 21.28 3.168 20.832C3.31733 20.3627 3.392 19.6053 3.392 18.56V4.352C3.392 3.28533 3.31733 2.528 3.168 2.08C3.01867 1.632 2.74133 1.344 2.336 1.216C1.952 1.06667 1.38667 0.949334 0.64 0.864L0 0.800001V0L4.736 0.0960007H6.528L14.144 18.56L22.56 0.0960007H24.48L28.96 0V0.800001L28.32 0.864C27.5947 0.949334 27.0293 1.06667 26.624 1.216C26.2187 1.344 25.9413 1.632 25.792 2.08C25.6427 2.528 25.568 3.28533 25.568 4.352V18.56C25.568 19.6053 25.6427 20.3627 25.792 20.832C25.9413 21.3013 26.2187 21.6 26.624 21.728C27.0293 21.856 27.5947 21.9627 28.32 22.048L28.96 22.112V22.912L24.224 22.816L19.456 22.912V22.112L20.096 22.048C20.8427 21.9627 21.408 21.856 21.792 21.728C22.1973 21.6 22.4747 21.3013 22.624 20.832C22.7733 20.3627 22.848 19.6053 22.848 18.56V2.112L13.376 22.816H12.768L4.512 2.432V19.456C4.512 20.1387 4.59733 20.6507 4.768 20.992C4.93867 21.3333 5.216 21.5787 5.6 21.728C6.00533 21.856 6.56 21.9627 7.264 22.048L7.904 22.112V22.912L3.84 22.816L0 22.912Z" fill="#05070A"/>
<path d="M31.471 32.224C30.7457 32.224 30.2017 32.0427 29.839 31.68C29.4763 31.3387 29.295 30.9547 29.295 30.528C29.295 30.1013 29.455 29.7387 29.775 29.44C30.0737 29.1627 30.4577 29.024 30.927 29.024C31.2257 29.024 31.4603 29.0667 31.631 29.152C31.8017 29.2587 31.9617 29.3653 32.111 29.472C32.2603 29.5787 32.431 29.6853 32.623 29.792C32.815 29.92 33.039 29.984 33.295 29.984C33.679 29.984 34.0737 29.8347 34.479 29.536C34.9057 29.2373 35.343 28.6187 35.791 27.68L37.903 23.136L32.591 11.488C32.3777 10.9973 32.143 10.592 31.887 10.272C31.631 9.952 31.2363 9.76 30.703 9.696L29.967 9.6V8.864L33.295 8.96L36.527 8.864V9.6L36.079 9.664C35.183 9.792 34.735 10.1227 34.735 10.656C34.735 10.912 34.8523 11.296 35.087 11.808L39.087 20.576L43.087 11.968C43.3217 11.4347 43.439 11.0187 43.439 10.72C43.439 10.144 42.9163 9.792 41.871 9.664L41.359 9.6V8.864L44.431 8.96L46.991 8.864V9.6L46.511 9.664C45.7217 9.77067 45.1457 10.0587 44.783 10.528C44.4417 10.9973 44.1217 11.5733 43.823 12.256L36.591 28.032C36.2497 28.7573 35.8443 29.44 35.375 30.08C34.927 30.72 34.383 31.232 33.743 31.616C33.1243 32.0213 32.367 32.224 31.471 32.224Z" fill="#05070A"/>
<path d="M66.429 23.168C65.2557 23.168 64.381 22.7733 63.805 21.984C63.2503 21.1733 62.8877 20.1813 62.717 19.008C62.6103 18.1547 62.4397 17.3013 62.205 16.448C61.9917 15.5947 61.6397 14.816 61.149 14.112C60.6797 13.3867 60.0077 12.8107 59.133 12.384C58.2797 11.9573 57.1597 11.744 55.773 11.744H54.397V18.56C54.397 19.6053 54.4717 20.3627 54.621 20.832C54.7703 21.28 55.0477 21.5787 55.453 21.728C55.8583 21.856 56.4237 21.9627 57.149 22.048L57.789 22.112V22.912L53.053 22.816H53.021L48.285 22.912V22.112L48.925 22.048C49.6717 21.9627 50.237 21.856 50.621 21.728C51.0263 21.5787 51.3037 21.28 51.453 20.832C51.6023 20.3627 51.677 19.6053 51.677 18.56V4.352C51.677 3.28533 51.6023 2.528 51.453 2.08C51.3037 1.632 51.0263 1.344 50.621 1.216C50.237 1.06667 49.6717 0.949334 48.925 0.864L48.285 0.800001V0L53.021 0.0960007H57.501C58.9517 0.0960007 60.2957 0.266668 61.533 0.608002C62.7703 0.928001 63.7623 1.49333 64.509 2.304C65.277 3.11467 65.661 4.24533 65.661 5.696C65.661 6.976 65.373 8.02133 64.797 8.832C64.2423 9.62134 63.4957 10.2293 62.557 10.656C61.6397 11.0613 60.637 11.3493 59.549 11.52C61.1277 11.6267 62.4077 12.1707 63.389 13.152C64.3917 14.112 65.0317 15.5307 65.309 17.408C65.501 18.6027 65.7357 19.5413 66.013 20.224C66.3117 20.8853 66.6317 21.3547 66.973 21.632C67.3357 21.888 67.6983 22.016 68.061 22.016C68.2957 22.016 68.5197 21.9733 68.733 21.888C68.9677 21.8027 69.1703 21.7173 69.341 21.632L69.565 22.432C69.2237 22.6027 68.765 22.7627 68.189 22.912C67.613 23.0827 67.0263 23.168 66.429 23.168ZM57.565 0.928001H54.397V10.88H57.085C59.133 10.88 60.5623 10.464 61.373 9.632C62.205 8.8 62.621 7.552 62.621 5.888C62.621 4.30933 62.2477 3.09333 61.501 2.24C60.7543 1.36533 59.4423 0.928001 57.565 0.928001Z" fill="#05070A"/>
<path d="M75.5345 22.912V22.112L76.2385 22.048C77.1132 21.9627 77.7745 21.856 78.2225 21.728C78.6918 21.5787 79.0118 21.28 79.1825 20.832C79.3745 20.3627 79.4705 19.6053 79.4705 18.56V0.960001H74.9585C73.9772 0.960001 73.1985 1.152 72.6225 1.536C72.0678 1.89867 71.5772 2.496 71.1505 3.328C70.7452 4.16 70.2652 5.26933 69.7105 6.656L69.0385 6.496L69.8385 2.56L70.1905 0L79.3105 0.0960007H82.3505L91.5025 0L91.8545 2.56L92.6545 6.496L91.9505 6.688C91.4598 5.45067 91.0012 4.40533 90.5745 3.552C90.1692 2.69867 89.6892 2.05867 89.1345 1.632C88.5798 1.184 87.8438 0.960001 86.9265 0.960001H82.1905V18.56C82.1905 19.6053 82.2758 20.3627 82.4465 20.832C82.6385 21.28 82.9692 21.5787 83.4385 21.728C83.9078 21.856 84.5692 21.9627 85.4225 22.048L86.1265 22.112V22.912L80.9105 22.816L75.5345 22.912Z" fill="#05070A"/>
</svg>
